# xmcd
#
# Track frame offsets: 
#        150
#        20307
#        39312
#        59200
#        79225
#        102492
#        120105
#        135657
#        152732
#        174112
#        190860
#        208957
#        225832
#        248597
#        271905
#
# Disc length: 3928 seconds
#
# Revision: 1
# Processed by: cddbd v1.5.2PL0 Copyright (c) Steve Scherf et al.
# Submitted via: ExactAudioCopyFreeDBPlugin 1.0
#
DISCID=bc0f560f
DTITLE=Moon Myung Jin - 1st 상처
DYEAR=2001
DGENRE=R&B
TTITLE0=가르쳐줘요
TTITLE1=지난여름 바닷가
TTITLE2=상처
TTITLE3=기억해
TTITLE4=하루하루
TTITLE5=One Side Love
TTITLE6=Dark
TTITLE7=Tell Me
TTITLE8=무명가수 블루스
TTITLE9=My Jesus
TTITLE10=관심
TTITLE11=Tell Me (Remix)
TTITLE12=상처 Original
TTITLE13=하루하루 (Inst.)
TTITLE14=상처 (Inst.)
EXTD=
EXTT0=
EXTT1=
EXTT2=
EXTT3=
EXTT4=
EXTT5=
EXTT6=
EXTT7=
EXTT8=
EXTT9=
EXTT10=
EXTT11=
EXTT12=
EXTT13=
EXTT14=
PLAYORDER=
